<?xml version="1.0" encoding="UTF-8" standalone="no"?>
<svg
   xmlns:sketch="http://www.bohemiancoding.com/sketch/ns"
   xmlns:dc="http://purl.org/dc/elements/1.1/"
   xmlns:cc="http://creativecommons.org/ns#"
   xmlns:rdf="http://www.w3.org/1999/02/22-rdf-syntax-ns#"
   xmlns:svg="http://www.w3.org/2000/svg"
   xmlns="http://www.w3.org/2000/svg"
   xmlns:sodipodi="http://sodipodi.sourceforge.net/DTD/sodipodi-0.dtd"
   xmlns:inkscape="http://www.inkscape.org/namespaces/inkscape"
   width="24px"
   height="24px"
   viewBox="0 0 24 24"
   version="1.1"
   id="svg72"
   sodipodi:docname="equalizer.svg"
   inkscape:version="0.92.1 unknown">
  <metadata
     id="metadata76">
    <rdf:RDF>
      <cc:Work
         rdf:about="">
        <dc:format>image/svg+xml</dc:format>
        <dc:type
           rdf:resource="http://purl.org/dc/dcmitype/StillImage" />
        <dc:title>Artboard 1</dc:title>
      </cc:Work>
    </rdf:RDF>
  </metadata>
  <sodipodi:namedview
     pagecolor="#ffffff"
     bordercolor="#666666"
     borderopacity="1"
     objecttolerance="10"
     gridtolerance="10"
     guidetolerance="10"
     inkscape:pageopacity="0"
     inkscape:pageshadow="2"
     inkscape:window-width="1920"
     inkscape:window-height="1017"
     id="namedview74"
     showgrid="false"
     inkscape:zoom="34.75"
     inkscape:cx="8.8345324"
     inkscape:cy="12"
     inkscape:window-x="0"
     inkscape:window-y="30"
     inkscape:window-maximized="1"
     inkscape:current-layer="svg72" />
  <!-- Generator: Sketch 3.3.2 (12043) - http://www.bohemiancoding.com/sketch -->
  <title
     id="title63">Artboard 1</title>
  <desc
     id="desc65">Created with Sketch.</desc>
  <defs
     id="defs67" />
  <g
     id="Page-1"
     stroke="none"
     stroke-width="1"
     fill="none"
     fill-rule="evenodd"
     sketch:type="MSPage">
    <g
       id="Artboard-1"
       sketch:type="MSArtboardGroup"
       style="fill:#ffffff">
      <path
         d="M 21,9.2675644 V 3.9933977 C 21,3.4449463 20.552285,3 20,3 19.443865,3 19,3.4447593 19,3.9933977 V 9.2675644 C 18.402199,9.6133738 18,10.259718 18,11 c 0,0.740282 0.402199,1.386626 1,1.732436 v 7.274166 C 19,20.555054 19.447715,21 20,21 c 0.556135,0 1,-0.444759 1,-0.993398 V 12.732436 C 21.597801,12.386626 22,11.740282 22,11 22,10.259718 21.597801,9.6133738 21,9.2675644 Z M 13,14.267564 V 3.9933977 C 13,3.4449463 12.552285,3 12,3 11.443865,3 11,3.4447593 11,3.9933977 V 14.267564 C 10.402199,14.613374 10,15.259718 10,16 c 0,0.740282 0.402199,1.386626 1,1.732436 v 2.274166 C 11,20.555054 11.447715,21 12,21 c 0.556135,0 1,-0.444759 1,-0.993398 V 17.732436 C 13.597801,17.386626 14,16.740282 14,16 14,15.259718 13.597801,14.613374 13,14.267564 Z M 5,6.2675644 V 3.9933977 C 5,3.4449463 4.5522847,3 4,3 3.4438648,3 3,3.4447593 3,3.9933977 V 6.2675644 C 2.4021986,6.6133738 2,7.2597176 2,8 2,8.7402824 2.4021986,9.3866262 3,9.7324356 V 20.006602 C 3,20.555054 3.4477153,21 4,21 4.5561352,21 5,20.555241 5,20.006602 V 9.7324356 C 5.5978014,9.3866262 6,8.7402824 6,8 6,7.2597176 5.5978014,6.6133738 5,6.2675644 Z M 20,12 c 0.552285,0 1,-0.447715 1,-1 0,-0.552285 -0.447715,-1 -1,-1 -0.552285,0 -1,0.447715 -1,1 0,0.552285 0.447715,1 1,1 z M 4,9 C 4.5522847,9 5,8.5522848 5,8 5,7.4477152 4.5522847,7 4,7 3.4477153,7 3,7.4477152 3,8 3,8.5522848 3.4477153,9 4,9 Z m 8,8 c 0.552285,0 1,-0.447715 1,-1 0,-0.552285 -0.447715,-1 -1,-1 -0.552285,0 -1,0.447715 -1,1 0,0.552285 0.447715,1 1,1 z"
         id="Rectangle-1"
         sketch:type="MSShapeGroup"
         inkscape:connector-curvature="0" />
    </g>
  </g>
</svg>
