<svg xmlns="http://www.w3.org/2000/svg" width="24" height="72" viewBox="595 351 24 72"><symbol viewBox="-12 -12 24 24"><path d="M12-12h-24v24h24z" fill="#7fcdff"/><path d="M-10 7h20v-14h-20z" fill="#bf667f"/><path d="M7 10v-20h-14v20z" fill="#bf667f"/><path d="M9-9h-18v18h18z" fill="#bf667f"/><path d="M9 0c0 4.97-4.03 9-9 9s-9-4.03-9-9 4.03-9 9-9 9 4.03 9 9z" fill="#e691a9"/></symbol><g><path d="M597 408v6h3.057l6.943 5v-16l-6.973 5z"/><path d="M610.163 407l6.837 6.812-1.163 1.188-6.837-6.813z"/><path d="M609 413.854l6.839-6.854 1.161 1.146-6.839 6.854z"/><g transform="translate(0 48) translate(0 -24)"><symbol viewBox="-12 -12 24 24"><path d="M12-12h-24v24h24z" fill="#7fcdff"/><path d="M-10 7h20v-14h-20z" fill="#bf667f"/><path d="M7 10v-20h-14v20z" fill="#bf667f"/><path d="M9-9h-18v18h18z" fill="#bf667f"/><path d="M9 0c0 4.97-4.03 9-9 9s-9-4.03-9-9 4.03-9 9-9 9 4.03 9 9z" fill="#e691a9"/></symbol><path d="M610.783 358.006c-.434 0-.783.366-.783.814 0 .18.063.348.153.48.508.746.894 2.246.894 3.693 0 1.446-.386 2.946-.894 3.692-.09.133-.153.3-.153.48 0 .448.35.812.783.812.273 0 .452-.12.655-.37.592-.73 1.56-2.354 1.56-4.617 0-2.265-.968-3.888-1.56-4.616-.203-.246-.38-.368-.655-.368zm-13.783 1.994v6h3.057l6.943 5v-16l-6.973 5z"/></g><g transform="translate(0 48) translate(0 -47.998)"><symbol viewBox="-12 -12 24 24"><path d="M12-12h-24v24h24z" fill="#7fcdff"/><path d="M-10 7h20v-14h-20zm17 3v-20h-14v20zm2-19h-18v18h18z" fill="#bf667f"/><path d="M9 0c0 4.97-4.03 9-9 9s-9-4.03-9-9 4.03-9 9-9 9 4.03 9 9z" fill="#e691a9"/></symbol><path d="M614.396 354.282c-.158-.175-.354-.282-.587-.282-.446 0-.812.404-.812.902 0 .256.08.46.254.652 1.458 1.625 2.8 4.32 2.8 7.443 0 3.124-1.342 5.818-2.8 7.443-.173.19-.254.396-.254.652 0 .498.363.903.81.903.23 0 .43-.106.588-.283 2.155-2.4 3.587-5.5 3.587-8.717 0-3.217-1.432-6.31-3.587-8.713zm-3.613 3.724c-.434 0-.783.366-.783.814 0 .18.063.348.153.48.508.746.894 2.246.894 3.693 0 1.446-.386 2.946-.894 3.692-.09.133-.153.3-.153.48 0 .448.35.812.783.812.273 0 .452-.12.655-.37.592-.73 1.56-2.354 1.56-4.617 0-2.265-.968-3.888-1.56-4.616-.203-.246-.38-.368-.655-.368zm-13.783 1.994v6h3.057l6.943 5v-16l-6.973 5h-3.027z"/></g></g></svg>